<svg width="620" height="673" viewBox="0 0 620 673" fill="none" xmlns="http://www.w3.org/2000/svg">
<path d="M493.306 393.003V372.186L464.535 363.506L415.112 381.152L499.506 326.836V251.912L447.075 238.736L413.582 249.001L431.924 234.915L398.95 226.625V269.974L483.785 292.09L451.485 293.051V337.284L387.742 379.749L451.667 401.813L451.874 494.046L486.249 506.026L451.9 501.764L451.926 517.929L501.296 535.133L451.952 529.026L452.03 563.175L444.558 568.58V568.606L397.549 602.625V602.599L396.744 603.197L547.268 538.954C501.971 518.839 494.344 433.077 493.306 393.003Z" fill="url(#paint0_linear_919_2796)" fill-opacity="0.05"/>
<path d="M324.551 508.142L287.665 502.61L324.525 502.273L324.473 483.367L301.419 479.913L324.473 479.706L324.162 364.844L298.052 348.743L367.032 372.323V317.061L283.417 293.169V372.505C283.417 372.505 289.115 512.686 229.513 539.097L379.776 603.293L324.706 563.742L324.551 508.142ZM304.605 391.021C304.32 390.995 304.061 390.969 303.802 390.865L304.605 391.021Z" fill="url(#paint1_linear_919_2796)" fill-opacity="0.05"/>
<path d="M598.317 546.301V616.374C598.317 625.192 591.167 632.349 582.359 632.349H582.048C573.241 632.349 566.091 625.192 566.091 616.374V609.009C566.091 603.589 561.713 599.206 556.299 599.206H556.091C550.677 599.206 546.299 603.589 546.299 609.009V678.278C546.299 684.735 541.067 690 534.59 690H534.357C527.907 690 522.648 684.761 522.648 678.278V615.129C522.648 605.223 512.675 598.428 503.453 602.059L503.168 602.163C497.805 604.289 494.282 609.476 494.282 615.233V646.042C494.282 654.16 487.702 660.747 479.594 660.747H479.309C471.201 660.747 464.621 654.16 464.621 646.042V643.838C464.621 640.104 461.59 637.069 457.86 637.069H457.627C448.664 637.069 441.41 644.331 441.41 653.304V676.981C441.41 682.739 436.747 687.407 430.997 687.407H430.789C425.038 687.407 420.375 682.739 420.375 676.981V668.086C420.375 660.851 413.899 655.353 406.775 656.52L401.672 657.349C395.118 658.439 388.383 657.479 382.373 654.626L357.478 642.801C349.759 639.144 340.873 644.772 340.873 653.304V659.761C340.873 665.985 335.822 671.042 329.605 671.042H329.371C323.154 671.042 318.103 665.985 318.103 659.761V633.594C318.103 626.514 313.31 620.368 306.471 618.604L306.212 618.527C298.519 616.582 291.032 622.391 291.032 630.327V666.4C291.032 672.054 286.473 676.618 280.826 676.618H280.618C274.971 676.618 270.412 672.054 270.412 666.4V625.762C270.412 611.81 261.889 599.258 248.937 594.123L239.766 590.492C232.876 587.769 225.285 587.406 218.187 589.455L218.006 589.507C212.929 590.985 207.463 589.662 203.603 586.058L202.1 584.657C198.007 580.845 191.35 583.75 191.35 589.351V626.566C191.35 631.156 187.646 634.865 183.06 634.865H182.905C178.32 634.865 174.615 631.156 174.615 626.566V540.648L395.507 630.145L598.317 546.301Z" fill="url(#paint2_linear_919_2796)" fill-opacity="0.05"/>
<path d="M278.081 269.719L326.571 282.366V263.798L295.539 242.373L326.571 251.436V186.358L278.081 193.473V269.719Z" fill="url(#paint3_linear_919_2796)" fill-opacity="0.05"/>
<path d="M398.271 216.69L440.959 226.584V169.608L398.271 175.866V216.69Z" fill="url(#paint4_linear_919_2796)" fill-opacity="0.05"/>
<path d="M340.766 286.08L383.454 297.22V278.652L352.577 257.332L383.454 266.343V178.022L340.766 184.28V286.08Z" fill="url(#paint5_linear_919_2796)" fill-opacity="0.05"/>
<path d="M455.05 230.609L498.463 240.659V161.167L455.05 167.53V230.609Z" fill="url(#paint6_linear_919_2796)" fill-opacity="0.05"/>
<path d="M594.589 528.372L558.325 512.297C547.627 507.545 537.732 490.716 531.205 466.15C524.392 440.492 522.346 412.186 521.828 392.917V347.185L522.501 346.743L528.044 343.186L527.941 127.252L490.977 132.679C486.159 133.381 481.808 129.641 481.808 124.733V122.448C481.808 118.916 484.657 116.059 488.18 116.059H490.459V107.853H285.826V116.059H290.359C295.721 116.059 300.046 120.422 300.046 125.772V150.364C300.046 156.259 295.721 161.272 289.892 162.129L248.992 168.127V292.338L254.328 293.74V372.764L254.354 373.466V373.725C254.949 388.086 254.302 420.704 248.215 451.841C241.713 485.055 230.937 506.532 217.856 512.349L156 539.772L384.542 636.43L389.256 638.429L393.945 636.404L548.042 570.312L620 539.694L594.589 528.372ZM465.256 136.419L416.428 143.587C411.455 144.314 407 140.444 407 135.406V122.37C407 119.279 409.15 116.708 412.025 116.059H415.496C418.371 116.708 420.521 119.279 420.521 122.37V122.474C420.521 125.512 422.956 127.953 425.987 127.953H428.655C433.058 127.953 436.633 124.369 436.633 119.955V116.111L436.529 116.059H465.722C469.245 116.059 472.094 118.916 472.094 122.448V128.498C472.094 132.472 469.193 135.848 465.256 136.419ZM315.174 122.759C315.174 119.461 317.479 116.734 320.562 116.059H323.618C326.701 116.734 329.006 119.461 329.006 122.759V127.122C329.006 131.147 332.27 134.419 336.285 134.419H340.844C344.859 134.419 348.122 131.147 348.122 127.122V126.992C348.122 124.188 350.376 121.928 353.173 121.928H360.349C364.907 121.928 369.259 123.746 372.471 126.966L373.248 127.745C376.693 131.199 382.262 131.199 385.708 127.745L385.811 127.641C387.599 125.85 390.629 127.122 390.629 129.641V140.211C390.629 144.314 387.624 147.794 383.584 148.391L328.721 156.441C321.572 157.48 315.148 151.923 315.148 144.677V122.759H315.174ZM543.301 559.171L389.204 625.263L186.332 539.461L222.726 523.334C262.643 505.649 267.745 406.524 266.398 373.206L266.373 372.505V284.417L261.037 283.015V178.567L515.922 141.197L516.025 336.589L509.809 340.589V393.072C510.327 413.069 512.477 442.44 519.6 469.266C524.962 489.47 535.194 515.257 553.481 523.36L589.745 539.435L543.301 559.171Z" fill="url(#paint7_linear_919_2796)" fill-opacity="0.05"/>
<path d="M490.407 79.2611H285.774V97.2058H490.407V79.2611Z" fill="url(#paint8_linear_919_2796)" fill-opacity="0.05"/>
<path d="M285.774 30.3611V67.2893H315.459L285.774 30.3611Z" fill="url(#paint9_linear_919_2796)" fill-opacity="0.05"/>
<path d="M344.444 27.738L327.607 67.289H360.763L344.444 27.738Z" fill="url(#paint10_linear_919_2796)" fill-opacity="0.05"/>
<path d="M388.013 16L370.295 67.2891H405.212L388.013 16Z" fill="url(#paint11_linear_919_2796)" fill-opacity="0.05"/>
<path d="M431.582 27.738L415.626 67.289H447.901L431.582 27.738Z" fill="url(#paint12_linear_919_2796)" fill-opacity="0.05"/>
<path d="M489.734 30.3611L460.049 67.2893H489.734V30.3611Z" fill="url(#paint13_linear_919_2796)" fill-opacity="0.05"/>
<circle cx="80.5" cy="312.5" r="312.5" fill="#C4C4C4"/>
<circle cx="80.5" cy="312.5" r="312.5" fill="url(#paint14_linear_919_2796)"/>
<defs>
<linearGradient id="paint0_linear_919_2796" x1="388" y1="16" x2="388" y2="1058.16" gradientUnits="userSpaceOnUse">
<stop stop-color="#F4F6F9"/>
<stop offset="1" stop-color="#E5E8F0" stop-opacity="0"/>
</linearGradient>
<linearGradient id="paint1_linear_919_2796" x1="388" y1="16" x2="388" y2="1058.16" gradientUnits="userSpaceOnUse">
<stop stop-color="#F4F6F9"/>
<stop offset="1" stop-color="#E5E8F0" stop-opacity="0"/>
</linearGradient>
<linearGradient id="paint2_linear_919_2796" x1="388" y1="16" x2="388" y2="1058.16" gradientUnits="userSpaceOnUse">
<stop stop-color="#F4F6F9"/>
<stop offset="1" stop-color="#E5E8F0" stop-opacity="0"/>
</linearGradient>
<linearGradient id="paint3_linear_919_2796" x1="388" y1="16" x2="388" y2="1058.16" gradientUnits="userSpaceOnUse">
<stop stop-color="#F4F6F9"/>
<stop offset="1" stop-color="#E5E8F0" stop-opacity="0"/>
</linearGradient>
<linearGradient id="paint4_linear_919_2796" x1="388" y1="16" x2="388" y2="1058.16" gradientUnits="userSpaceOnUse">
<stop stop-color="#F4F6F9"/>
<stop offset="1" stop-color="#E5E8F0" stop-opacity="0"/>
</linearGradient>
<linearGradient id="paint5_linear_919_2796" x1="388" y1="16" x2="388" y2="1058.16" gradientUnits="userSpaceOnUse">
<stop stop-color="#F4F6F9"/>
<stop offset="1" stop-color="#E5E8F0" stop-opacity="0"/>
</linearGradient>
<linearGradient id="paint6_linear_919_2796" x1="388" y1="16" x2="388" y2="1058.16" gradientUnits="userSpaceOnUse">
<stop stop-color="#F4F6F9"/>
<stop offset="1" stop-color="#E5E8F0" stop-opacity="0"/>
</linearGradient>
<linearGradient id="paint7_linear_919_2796" x1="388" y1="16" x2="388" y2="1058.16" gradientUnits="userSpaceOnUse">
<stop stop-color="#F4F6F9"/>
<stop offset="1" stop-color="#E5E8F0" stop-opacity="0"/>
</linearGradient>
<linearGradient id="paint8_linear_919_2796" x1="388" y1="16" x2="388" y2="1058.16" gradientUnits="userSpaceOnUse">
<stop stop-color="#F4F6F9"/>
<stop offset="1" stop-color="#E5E8F0" stop-opacity="0"/>
</linearGradient>
<linearGradient id="paint9_linear_919_2796" x1="388" y1="16" x2="388" y2="1058.16" gradientUnits="userSpaceOnUse">
<stop stop-color="#F4F6F9"/>
<stop offset="1" stop-color="#E5E8F0" stop-opacity="0"/>
</linearGradient>
<linearGradient id="paint10_linear_919_2796" x1="388" y1="16" x2="388" y2="1058.16" gradientUnits="userSpaceOnUse">
<stop stop-color="#F4F6F9"/>
<stop offset="1" stop-color="#E5E8F0" stop-opacity="0"/>
</linearGradient>
<linearGradient id="paint11_linear_919_2796" x1="388" y1="16" x2="388" y2="1058.16" gradientUnits="userSpaceOnUse">
<stop stop-color="#F4F6F9"/>
<stop offset="1" stop-color="#E5E8F0" stop-opacity="0"/>
</linearGradient>
<linearGradient id="paint12_linear_919_2796" x1="388" y1="16" x2="388" y2="1058.16" gradientUnits="userSpaceOnUse">
<stop stop-color="#F4F6F9"/>
<stop offset="1" stop-color="#E5E8F0" stop-opacity="0"/>
</linearGradient>
<linearGradient id="paint13_linear_919_2796" x1="388" y1="16" x2="388" y2="1058.16" gradientUnits="userSpaceOnUse">
<stop stop-color="#F4F6F9"/>
<stop offset="1" stop-color="#E5E8F0" stop-opacity="0"/>
</linearGradient>
<linearGradient id="paint14_linear_919_2796" x1="-226.277" y1="0.000105179" x2="368.009" y2="80.1113" gradientUnits="userSpaceOnUse">
<stop stop-color="#3478E7"/>
<stop offset="0.338484" stop-color="#3CBEEA"/>
<stop offset="0.567655" stop-color="#5DCAEE"/>
<stop offset="0.791617" stop-color="#3CBEEA"/>
<stop offset="1" stop-color="#4397E7"/>
</linearGradient>
</defs>
</svg>
