<svg width="13" height="13" viewBox="0 0 13 13" fill="none" xmlns="http://www.w3.org/2000/svg">
<path d="M7.5 4.5H2.5C1.9485 4.5 1.5 4.9485 1.5 5.5V10.5C1.5 11.0515 1.9485 11.5 2.5 11.5H7.5C8.0515 11.5 8.5 11.0515 8.5 10.5V5.5C8.5 4.9485 8.0515 4.5 7.5 4.5Z" fill="#1EAEE1"/>
<path d="M10.5 1.5H5.5C5.23478 1.5 4.98043 1.60536 4.79289 1.79289C4.60536 1.98043 4.5 2.23478 4.5 2.5V3.5H8.5C8.76522 3.5 9.01957 3.60536 9.20711 3.79289C9.39464 3.98043 9.5 4.23478 9.5 4.5V8.5H10.5C10.7652 8.5 11.0196 8.39464 11.2071 8.20711C11.3946 8.01957 11.5 7.76522 11.5 7.5V2.5C11.5 2.23478 11.3946 1.98043 11.2071 1.79289C11.0196 1.60536 10.7652 1.5 10.5 1.5Z" fill="#1EAEE1"/>
</svg>
