<svg width="24" height="24" viewBox="0 0 24 24" fill="none" xmlns="http://www.w3.org/2000/svg">
<path d="M6.77225 12.5391H11.1762V16.943C11.1762 17.3906 11.5444 17.766 11.9992 17.766C12.4541 17.766 12.8223 17.3906 12.8223 16.943V12.5391H17.2262C17.6738 12.5391 18.0492 12.1709 18.0492 11.716C18.0492 11.2612 17.6738 10.893 17.2262 10.893H12.8223V6.48905C12.8223 6.04143 12.4541 5.66602 11.9992 5.66602C11.5444 5.66602 11.1762 6.04143 11.1762 6.48905V10.893H6.77225C6.32464 10.893 5.94922 11.2612 5.94922 11.716C5.94922 12.1709 6.32464 12.5391 6.77225 12.5391Z" fill="white"/>
</svg>
