<svg width="14" height="14" viewBox="0 0 14 14" fill="none" xmlns="http://www.w3.org/2000/svg">
<path d="M12.4433 7.53081C12.4958 8.43498 12.0816 9.30415 11.3408 9.83498L11.7899 10.7041C11.9241 10.9666 11.9416 11.2758 11.8249 11.55C11.7141 11.8241 11.4866 12.04 11.2066 12.1333L10.7458 12.2791C10.5539 12.3438 10.3467 12.3477 10.1525 12.2903C9.95837 12.2328 9.78664 12.1169 9.66077 11.9583L8.4241 10.5C7.90493 10.4125 7.41493 10.1908 7.00077 9.85831C6.7091 9.94581 6.41743 9.99248 6.12577 9.99248C5.61243 9.99248 5.0991 9.83498 4.66743 9.53165C4.35827 9.62498 4.04327 9.66581 3.72243 9.65998C3.2616 9.66581 2.8066 9.57248 2.38077 9.39748C1.97088 9.2146 1.62065 8.92019 1.37001 8.54785C1.11938 8.17551 0.978438 7.74023 0.963266 7.29165C0.916599 6.87165 0.986599 6.44581 1.16743 6.06081C0.998266 5.62331 0.980766 5.14498 1.1266 4.70165C1.34243 4.14748 1.75077 3.68665 2.25827 3.39498C2.5966 2.40915 3.54743 1.74998 4.5916 1.81998C5.52493 0.944981 6.9541 0.851647 7.99243 1.60415C8.23743 1.53998 8.4941 1.50498 8.75077 1.50498C9.5441 1.48748 10.2966 1.83748 10.7924 2.46165C11.9824 2.77081 12.8341 3.83248 12.8808 5.06915C12.9099 5.71665 12.7349 6.35248 12.3791 6.89498C12.4199 7.10498 12.4433 7.31498 12.4433 7.53081ZM9.5266 6.70831C9.8591 6.74915 10.1216 6.99998 10.1216 7.33248C10.1216 7.48719 10.0601 7.63556 9.95074 7.74496C9.84135 7.85436 9.69298 7.91581 9.53827 7.91581H9.17077C8.9841 8.44081 8.65743 8.90165 8.22577 9.25165C8.3716 9.30415 8.52327 9.33331 8.67493 9.37415C11.6674 9.33331 11.3174 7.50748 11.3174 7.47831C11.302 7.07762 11.1279 6.69949 10.8337 6.42709C10.5394 6.1547 10.149 6.01035 9.74827 6.02581C9.59356 6.02581 9.44518 5.96436 9.33579 5.85496C9.22639 5.74556 9.16493 5.59719 9.16493 5.44248C9.16493 5.28777 9.22639 5.1394 9.33579 5.03C9.44518 4.92061 9.59356 4.85915 9.74827 4.85915C10.4658 4.87665 11.1541 5.14498 11.6908 5.61748C11.7199 5.44831 11.7374 5.27331 11.7374 5.09831C11.7024 4.37498 11.3758 3.74498 10.0633 3.62248C9.3341 1.89581 7.4966 2.85248 7.4966 3.38915C7.4791 3.52331 7.6191 3.80915 7.64243 3.82665C7.79714 3.82665 7.94552 3.88811 8.05491 3.9975C8.16431 4.1069 8.22577 4.25527 8.22577 4.40998C8.22577 4.73081 7.96327 4.99331 7.64243 4.99331C7.33327 4.98165 7.0416 4.86498 6.80827 4.66665C6.52827 4.84748 6.20743 4.95831 5.87493 4.99331C5.54243 5.02248 5.26827 4.78915 5.25077 4.46831C5.24002 4.39211 5.24496 4.31452 5.26529 4.2403C5.28561 4.16608 5.3209 4.0968 5.36897 4.03671C5.41704 3.97662 5.47689 3.92699 5.54484 3.89087C5.61278 3.85474 5.6874 3.83289 5.7641 3.82665C5.85743 3.81498 6.31243 3.74498 6.31243 3.37748C6.31243 2.99248 6.45827 2.62498 6.7091 2.33331C6.17243 2.18748 5.59493 2.37998 5.0116 3.08581C3.93827 2.91665 3.50077 3.06248 3.17993 4.19998C2.62577 4.47415 2.3341 4.66665 2.20577 5.24998C2.83577 5.12165 3.48327 5.17415 4.0841 5.39581C4.37577 5.50665 4.5391 5.83331 4.42827 6.14831C4.31743 6.45165 3.9791 6.60331 3.67577 6.49248C3.24993 6.30581 2.7716 6.29415 2.3341 6.45748C2.14743 6.61498 2.14743 6.94165 2.14743 7.19831C2.14743 7.62998 2.36327 8.03248 2.73077 8.26581C3.03993 8.42331 3.3841 8.50498 3.72827 8.49915C3.64077 8.34748 3.56493 8.18998 3.50077 8.02665C3.45484 7.87678 3.46883 7.71493 3.53979 7.57516C3.61074 7.43539 3.73314 7.32859 3.88123 7.27721C4.02932 7.22583 4.19157 7.23388 4.33384 7.29967C4.47612 7.36547 4.58733 7.48387 4.6441 7.62998C4.87743 8.29498 5.47243 8.74998 6.17243 8.82581C6.9716 8.78498 7.68327 8.31248 8.03327 7.58331C8.16743 6.77831 8.81493 6.70831 9.5266 6.70831ZM10.6933 11.0658L10.3316 10.3075L9.91743 10.4008L10.5008 11.13L10.6933 11.0658ZM7.98077 6.04331C7.98584 5.8943 7.93365 5.74899 7.83493 5.63725C7.7362 5.52551 7.59844 5.45581 7.44993 5.44248C7.03577 5.41915 6.63327 5.55915 6.3241 5.83331C5.9916 6.17165 5.8166 6.63831 5.8341 7.11081C5.8341 7.26552 5.89556 7.4139 6.00495 7.52329C6.11435 7.63269 6.26272 7.69415 6.41743 7.69415C6.74993 7.69415 7.00077 7.43165 7.00077 7.11081C7.00077 6.95331 7.0416 6.79581 7.13493 6.66748C7.20493 6.60915 7.29243 6.57998 7.38577 6.57998C7.7066 6.59748 7.98077 6.35831 7.98077 6.04331Z" fill="white"/>
</svg>
