<svg width="17" height="18" viewBox="0 0 17 18" fill="none" xmlns="http://www.w3.org/2000/svg">
<path d="M12.149 8.20845C12.1029 8.12639 12.0358 8.05806 11.9545 8.01046C11.8733 7.96285 11.7809 7.93768 11.6868 7.93752H9.03055V2.62502C9.03496 2.50578 8.9991 2.38853 8.92875 2.29216C8.85839 2.19578 8.75765 2.1259 8.64274 2.09377C8.53163 2.06287 8.41348 2.06896 8.30614 2.11113C8.1988 2.1533 8.1081 2.22925 8.04774 2.32752L3.79774 9.23377C3.75111 9.31453 3.72656 9.40614 3.72656 9.49939C3.72656 9.59265 3.75111 9.68426 3.79774 9.76502C3.83948 9.85049 3.9034 9.92319 3.98283 9.97552C4.06226 10.0279 4.15429 10.0579 4.2493 10.0625H6.90555V15.375C6.90114 15.4943 6.937 15.6115 7.00735 15.7079C7.0777 15.8042 7.17845 15.8741 7.29336 15.9063C7.34086 15.914 7.3893 15.914 7.4368 15.9063C7.52758 15.9059 7.61676 15.8822 7.69581 15.8376C7.77486 15.793 7.84115 15.7288 7.88836 15.6513L12.1384 8.74502C12.1876 8.66457 12.2145 8.57247 12.2164 8.47817C12.2183 8.38388 12.195 8.29078 12.149 8.20845Z" fill="white"/>
</svg>
