<svg width="12" height="12" viewBox="0 0 12 12" fill="none" xmlns="http://www.w3.org/2000/svg">
<path d="M6.14623 2.51714L5.99975 2.66321L5.85327 2.51672C5.3473 2.01997 4.66564 1.74311 3.95659 1.74637C3.24754 1.74962 2.56846 2.03274 2.06708 2.53412C1.5657 3.0355 1.28258 3.71458 1.27933 4.42363C1.27607 5.13269 1.55293 5.81434 2.04968 6.32031L2.19616 6.46679L5.99975 10.2704L9.80334 6.46679L9.94982 6.32031C10.4426 5.81355 10.7161 5.13317 10.7112 4.42632C10.7062 3.71947 10.4232 3.04299 9.92336 2.54318C9.4235 2.04338 8.74699 1.76044 8.04014 1.75557C7.33329 1.7507 6.65294 2.02428 6.14623 2.51714Z" fill="white"/>
<path d="M6.14623 2.51714L5.99975 2.66321L5.85327 2.51672C5.3473 2.01997 4.66564 1.74311 3.95659 1.74637C3.24754 1.74962 2.56846 2.03274 2.06708 2.53412C1.5657 3.0355 1.28258 3.71458 1.27933 4.42363C1.27607 5.13269 1.55293 5.81434 2.04968 6.32031L2.19616 6.46679L5.99975 10.2704L9.80334 6.46679L9.94982 6.32031C10.4426 5.81355 10.7161 5.13317 10.7112 4.42632C10.7062 3.71947 10.4232 3.04299 9.92336 2.54318C9.4235 2.04338 8.74699 1.76044 8.04014 1.75557C7.33329 1.7507 6.65294 2.02428 6.14623 2.51714Z" fill="white"/>
</svg>
