<svg width="14" height="14" viewBox="0 0 14 14" fill="none" xmlns="http://www.w3.org/2000/svg">
<g clip-path="url(#clip0_1283_4307)">
<path d="M11.2623 2.68005C11.6037 3.03519 11.5914 3.60022 11.2349 3.9402L8.16482 6.86784C8.51542 6.53678 9.09549 6.55281 9.43155 6.91373C9.73814 7.243 9.70174 7.74535 9.37615 8.05281L8.9586 8.44712C9.36535 8.06302 10.081 8.14612 10.3661 8.69299C10.564 9.07254 10.4645 9.52963 10.1501 9.82654L9.6945 10.2567C10.0316 9.93839 10.5809 9.94099 10.9214 10.2625L10.9225 10.2636C11.2938 10.6141 11.2963 11.1801 10.9281 11.5278L9.2144 13.1461C8.00148 14.2915 6.02665 14.2837 4.8035 13.1286L3.41313 11.8157C2.45808 10.9138 2.21772 9.54019 2.81679 8.40781C3.25887 7.6049 3.37981 6.80559 3.2163 5.90738C3.15991 5.62121 3.2551 5.32895 3.47114 5.12493C3.9898 4.63514 4.88406 4.8831 5.05365 5.56372L5.32288 7.11763L5.63605 6.82189L10.0071 2.65283C10.3616 2.31473 10.9228 2.32691 11.2623 2.68005Z" fill="white"/>
<path d="M5.59081 -0.00014591L5.57422 2.40591L6.44148 2.41189L6.45807 0.00583313L5.59081 -0.00014591Z" fill="white"/>
<path d="M8.45447 1.00173L6.90234 2.55212L7.51528 3.16575L9.06741 1.61536L8.45447 1.00173Z" fill="white"/>
<path d="M3.56662 1.06506L2.95508 1.68007L4.4869 3.20325L5.09844 2.58824L3.56662 1.06506Z" fill="white"/>
</g>
<defs>
<clipPath id="clip0_1283_4307">
<rect width="14" height="14" fill="white"/>
</clipPath>
</defs>
</svg>
