<svg width="12" height="12" viewBox="0 0 12 12" fill="none" xmlns="http://www.w3.org/2000/svg">
<path d="M11 5.04997C11.05 4.79997 10.85 4.49997 10.6 4.49997L7.75 4.09997L6.45 1.49997C6.4 1.39997 6.35 1.34997 6.25 1.29997C6 1.14997 5.7 1.24997 5.55 1.49997L4.3 4.09997L1.45 4.49997C1.3 4.49997 1.2 4.54997 1.15 4.64997C0.95 4.84997 0.95 5.14997 1.15 5.34997L3.2 7.34997L2.7 10.2C2.7 10.3 2.7 10.4 2.75 10.5C2.9 10.75 3.2 10.85 3.45 10.7L6 9.34997L8.55 10.7C8.6 10.75 8.7 10.75 8.8 10.75C8.85 10.75 8.85 10.75 8.9 10.75C9.15 10.7 9.35 10.45 9.3 10.15L8.8 7.29997L10.85 5.29997C10.95 5.24997 11 5.14997 11 5.04997Z" fill="white"/>
</svg>
