<svg width="20" height="20" viewBox="0 0 20 20" fill="none" xmlns="http://www.w3.org/2000/svg">
<path d="M5.625 3.75H5C2.93125 3.75 1.25 5.43125 1.25 7.5V8.75H5.625V3.75ZM9.5125 7.1125C9.75 6.8125 10.25 6.8125 10.4875 7.1125L11.8 8.75H13.125V3.75H6.875V8.75H8.2L9.5125 7.1125ZM15 3.75H14.375V8.75H18.75V7.5C18.75 5.43125 17.0688 3.75 15 3.75ZM11.8 10L10.4875 11.6375C10.3688 11.7875 10.1875 11.875 10 11.875C9.8125 11.875 9.63125 11.7875 9.5125 11.6375L8.2 10H1.25V15C1.25 15.6875 1.8125 16.25 2.5 16.25H17.5C18.1875 16.25 18.75 15.6875 18.75 15V10H11.8Z" fill="white"/>
</svg>
