<svg width="20" height="20" viewBox="0 0 20 20" fill="none" xmlns="http://www.w3.org/2000/svg">
<path d="M7.08345 3.33667L6.98595 3.3425C6.78324 3.36638 6.59634 3.46383 6.46071 3.61636C6.32508 3.76889 6.25014 3.96589 6.25011 4.17V13.82L4.33928 11.9117L4.26094 11.8417C4.09351 11.7107 3.88233 11.6486 3.67063 11.6682C3.45893 11.6877 3.26272 11.7875 3.12217 11.947C2.98161 12.1065 2.90733 12.3137 2.91454 12.5262C2.92175 12.7387 3.0099 12.9404 3.16094 13.09L6.49761 16.4233L6.57594 16.4925C6.73638 16.6168 6.93665 16.6782 7.13917 16.6653C7.3417 16.6525 7.53256 16.5661 7.67595 16.4225L11.0059 13.0892L11.0759 13.0108C11.2002 12.8504 11.2617 12.6501 11.2488 12.4476C11.2359 12.2451 11.1495 12.0542 11.0059 11.9108L10.9268 11.8417C10.7663 11.7174 10.5661 11.6559 10.3636 11.6688C10.161 11.6817 9.97017 11.7681 9.82678 11.9117L7.91678 13.8233V4.17L7.91095 4.0725C7.88706 3.86979 7.78962 3.6829 7.63709 3.54727C7.48456 3.41163 7.28756 3.3367 7.08345 3.33667ZM10.8334 4.16667C10.6124 4.16667 10.4005 4.25447 10.2442 4.41075C10.0879 4.56703 10.0001 4.77899 10.0001 5C10.0001 5.22102 10.0879 5.43298 10.2442 5.58926C10.4005 5.74554 10.6124 5.83334 10.8334 5.83334H17.5001C17.7211 5.83334 17.9331 5.74554 18.0894 5.58926C18.2457 5.43298 18.3334 5.22102 18.3334 5C18.3334 4.77899 18.2457 4.56703 18.0894 4.41075C17.9331 4.25447 17.7211 4.16667 17.5001 4.16667H10.8334ZM10.8334 6.66667C10.6124 6.66667 10.4005 6.75447 10.2442 6.91075C10.0879 7.06703 10.0001 7.27899 10.0001 7.5C10.0001 7.72102 10.0879 7.93298 10.2442 8.08926C10.4005 8.24554 10.6124 8.33334 10.8334 8.33334H15.0001C15.2211 8.33334 15.4331 8.24554 15.5894 8.08926C15.7456 7.93298 15.8334 7.72102 15.8334 7.5C15.8334 7.27899 15.7456 7.06703 15.5894 6.91075C15.4331 6.75447 15.2211 6.66667 15.0001 6.66667H10.8334ZM10.0001 10C10.0001 9.77899 10.0879 9.56703 10.2442 9.41075C10.4005 9.25447 10.6124 9.16667 10.8334 9.16667H12.5001C12.7211 9.16667 12.9331 9.25447 13.0894 9.41075C13.2456 9.56703 13.3334 9.77899 13.3334 10C13.3334 10.221 13.2456 10.433 13.0894 10.5893C12.9331 10.7455 12.7211 10.8333 12.5001 10.8333H10.8334C10.6124 10.8333 10.4005 10.7455 10.2442 10.5893C10.0879 10.433 10.0001 10.221 10.0001 10Z" fill="#1EAEE1"/>
</svg>
