<svg width="14" height="15" viewBox="0 0 14 15" fill="none" xmlns="http://www.w3.org/2000/svg">
<path fill-rule="evenodd" clip-rule="evenodd" d="M2.23404 0.5H11.8404C12.1803 0.5 12.5199 0.549853 12.8748 0.715319C13.3003 0.913633 13.5259 1.22621 13.6839 1.45738C13.6962 1.47536 13.7077 1.4939 13.7184 1.51286C13.9042 1.84367 14 2.20084 14 2.58511C14 2.95012 13.9131 3.34785 13.7184 3.6945C13.7165 3.69786 13.7146 3.70117 13.7127 3.70441L7.64356 14.13C7.50972 14.3599 7.26339 14.501 6.99736 14.5C6.73133 14.4991 6.48598 14.3562 6.35379 14.1254L0.39606 3.72209C0.394347 3.71927 0.392635 3.71646 0.390922 3.71358C0.254573 3.48897 0.0437203 3.14146 0.00683472 2.69308C-0.0270536 2.28073 0.0656188 1.86765 0.272802 1.50937C0.479986 1.1511 0.791893 0.864697 1.16705 0.689383C1.5693 0.501467 1.97694 0.5 2.23404 0.5ZM6.25531 1.98931H2.23404C1.96985 1.98931 1.86843 2.00559 1.79753 2.03874C1.69947 2.08456 1.61714 2.1598 1.56209 2.25498C1.50703 2.35022 1.48214 2.46057 1.49119 2.57104C1.49639 2.63436 1.5222 2.70678 1.67446 2.95789C1.67764 2.96315 1.68076 2.96847 1.68381 2.97385L6.25531 10.9565V1.98931ZM7.74468 1.98931V10.9959L12.4221 2.96113C12.4748 2.86521 12.5106 2.72666 12.5106 2.58511C12.5106 2.47024 12.4868 2.37053 12.4336 2.26776C12.3778 2.18745 12.3438 2.14493 12.3153 2.11581C12.2909 2.09092 12.2721 2.07758 12.2456 2.06523C12.135 2.01366 12.0218 1.98931 11.8404 1.98931H7.74468Z" fill="white"/>
</svg>
