<svg width="14" height="14" viewBox="0 0 14 14" fill="none" xmlns="http://www.w3.org/2000/svg">
<path fill-rule="evenodd" clip-rule="evenodd" d="M2.23404 0H11.8404C12.1803 0 12.5199 0.0498534 12.8748 0.215319C13.3003 0.413633 13.5259 0.726214 13.6839 0.957377C13.6962 0.975361 13.7077 0.993896 13.7184 1.01286C13.9042 1.34367 14 1.70084 14 2.08511C14 2.45012 13.9131 2.84785 13.7184 3.1945C13.7165 3.19786 13.7146 3.20117 13.7127 3.20441L7.64356 13.63C7.50972 13.8599 7.26339 14.001 6.99736 14C6.73133 13.9991 6.48598 13.8562 6.35379 13.6254L0.39606 3.22209C0.394347 3.21927 0.392635 3.21646 0.390922 3.21358C0.254573 2.98897 0.0437203 2.64146 0.00683472 2.19308C-0.0270536 1.78073 0.0656188 1.36765 0.272802 1.00937C0.479986 0.651096 0.791893 0.364697 1.16705 0.189383C1.5693 0.00146742 1.97694 0 2.23404 0ZM6.25531 1.48931H2.23404C1.96985 1.48931 1.86843 1.50559 1.79753 1.53874C1.69947 1.58456 1.61714 1.6598 1.56209 1.75498C1.50703 1.85022 1.48214 1.96057 1.49119 2.07104C1.49639 2.13436 1.5222 2.20678 1.67446 2.45789C1.67764 2.46315 1.68076 2.46847 1.68381 2.47385L6.25531 10.4565V1.48931ZM7.74468 1.48931V10.4959L12.4221 2.46113C12.4748 2.36521 12.5106 2.22666 12.5106 2.08511C12.5106 1.97024 12.4868 1.87053 12.4336 1.76776C12.3778 1.68745 12.3438 1.64493 12.3153 1.61581C12.2909 1.59092 12.2721 1.57758 12.2456 1.56523C12.135 1.51366 12.0218 1.48931 11.8404 1.48931H7.74468Z" fill="#1EAEE1"/>
</svg>
